# xmcd
#
# Track frame offsets:
#	150
#	12759
#	27648
#	41788
#	55690
#	70042
#	84094
#	98737
#	113229
#	127669
#	142365
#	155972
#	168754
#	181621
#	194496
#	206003
#	217676
#	229393
#	243310
#	257019
#	269829
#
# Disc length: 3763 seconds
#
# Revision: 2
# Processed by: cddbd v1.5.1PL0 Copyright (c) Steve Scherf et al.
# Submitted via: MusicWizard 7.0.2
#
DISCID=270eb115
DTITLE=Various Artist - Classic Columbia Condon Mob Sessions  CD 2
DYEAR=2001
DGENRE=Jazz
TTITLE0=Jimmy Dorsey And His Original Dorseyland Jazz Band - Johnson Rag
TTITLE1=Jimmy Dorsey And His Original Dorseyland Jazz Band - Struttin' With Some Barbecue
TTITLE2=Jimmy Dorsey And His Original Dorseyland Jazz Band - Charley, My Boy
TTITLE3=Jimmy Dorsey And His Original Dorseyland Jazz Band - Chimes Blues
TTITLE4=Jimmy Dorsey And His Original Dorseyland Jazz Band - South Rampart Street Parade
TTITLE5=Jimmy Dorsey And His Original Dorseyland Jazz Band - Tin Roof Blues
TTITLE6=Jimmy Dorsey And His Original Dorseyland Jazz Band - Jazz Me Blues (Alt Take)
TTITLE7=Jimmy Dorsey And His Original Dorseyland Jazz Band - Jazz Me Blues
TTITLE8=Jimmy Dorsey And His Original Dorseyland Jazz Band - Muskrat Ramble
TTITLE9=Jimmy Dorsey And His Original Dorseyland Jazz Band - Panama
TTITLE10=Jimmy Dorsey And His Original Dorseyland Jazz Band - High Society
TTITLE11=Jimmy Dorsey And His Original Dorseyland Jazz Band - Rag Mop
TTITLE12=Jimmy Dorsey And His Original Dorseyland Jazz Band - That's A Plenty
TTITLE13=Jimmy Dorsey And His Original Dorseyland Jazz Band - When You Wore A Tulip
TTITLE14=Jimmy Dorsey And His Original Dorseyland Jazz Band - Clap Hands, Here Comes Charlie
TTITLE15=Jimmy Dorsey And His Original Dorseyland Jazz Band - It's A Long Way To Tipperary
TTITLE16=Jimmy Dorsey And His Original Dorseyland Jazz Band - Let A Smile Be Your Umbrella
TTITLE17=Jimmy Dorsey And His Original Dorseyland Jazz Band - When You're Smiling (Alt Take)
TTITLE18=Jimmy Dorsey And His Original Dorseyland Jazz Band - When You're Smiling
TTITLE19=Jimmy Dorsey And His Original Dorseyland Jazz Band - Levee Blues
TTITLE20=Jimmy Dorsey And His Original Dorseyland Jazz Band - Dixieland Band From Santa Claus Land
EXTD=YEAR: 2001
EXTT0=
EXTT1=
EXTT2=
EXTT3=
EXTT4=
EXTT5=
EXTT6=
EXTT7=
EXTT8=
EXTT9=
EXTT10=
EXTT11=
EXTT12=
EXTT13=
EXTT14=
EXTT15=
EXTT16=
EXTT17=
EXTT18=
EXTT19=
EXTT20=
PLAYORDER=
